<mxfile host="app.diagrams.net" agent="Mozilla/5.0 (Windows NT 10.0; Win64; x64) AppleWebKit/537.36 (KHTML, like Gecko) Chrome/127.0.0.0 Safari/537.36" version="24.7.7">
  <diagram id="C5RBs43oDa-KdzZeNtuy" name="Page-1">
    <mxGraphModel dx="1050" dy="522" grid="1" gridSize="10" guides="1" tooltips="1" connect="1" arrows="1" fold="1" page="1" pageScale="1" pageWidth="827" pageHeight="1169" math="0" shadow="0">
      <root>
        <mxCell id="WIyWlLk6GJQsqaUBKTNV-0" />
        <mxCell id="WIyWlLk6GJQsqaUBKTNV-1" parent="WIyWlLk6GJQsqaUBKTNV-0" />
        <mxCell id="3r6zsvW5G55fgNv5qknv-8" style="edgeStyle=orthogonalEdgeStyle;rounded=0;orthogonalLoop=1;jettySize=auto;html=1;entryX=0;entryY=0.5;entryDx=0;entryDy=0;" edge="1" parent="WIyWlLk6GJQsqaUBKTNV-1" source="3r6zsvW5G55fgNv5qknv-1" target="3r6zsvW5G55fgNv5qknv-6">
          <mxGeometry relative="1" as="geometry" />
        </mxCell>
        <mxCell id="3r6zsvW5G55fgNv5qknv-1" value="精灵奇幻梦旅" style="rounded=0;whiteSpace=wrap;html=1;" vertex="1" parent="WIyWlLk6GJQsqaUBKTNV-1">
          <mxGeometry x="150" y="155" width="120" height="60" as="geometry" />
        </mxCell>
        <mxCell id="3r6zsvW5G55fgNv5qknv-2" value="项目名称" style="text;html=1;align=center;verticalAlign=middle;whiteSpace=wrap;rounded=0;" vertex="1" parent="WIyWlLk6GJQsqaUBKTNV-1">
          <mxGeometry x="180" y="60" width="60" height="30" as="geometry" />
        </mxCell>
        <mxCell id="3r6zsvW5G55fgNv5qknv-5" value="项目概念" style="text;html=1;align=center;verticalAlign=middle;whiteSpace=wrap;rounded=0;" vertex="1" parent="WIyWlLk6GJQsqaUBKTNV-1">
          <mxGeometry x="520" y="60" width="60" height="30" as="geometry" />
        </mxCell>
        <mxCell id="3r6zsvW5G55fgNv5qknv-12" style="edgeStyle=orthogonalEdgeStyle;rounded=0;orthogonalLoop=1;jettySize=auto;html=1;entryX=0.5;entryY=0;entryDx=0;entryDy=0;" edge="1" parent="WIyWlLk6GJQsqaUBKTNV-1" source="3r6zsvW5G55fgNv5qknv-6" target="3r6zsvW5G55fgNv5qknv-9">
          <mxGeometry relative="1" as="geometry" />
        </mxCell>
        <mxCell id="3r6zsvW5G55fgNv5qknv-6" value="打造一个针对梦想小女孩的奇妙购物、分享之旅，让每一个小女孩都能实现童话世界的公主梦想，让每一个奇幻梦旅梦想都有一个交流分享的沃土" style="rounded=0;whiteSpace=wrap;html=1;" vertex="1" parent="WIyWlLk6GJQsqaUBKTNV-1">
          <mxGeometry x="480" y="132.5" width="190" height="105" as="geometry" />
        </mxCell>
        <mxCell id="3r6zsvW5G55fgNv5qknv-9" value="&amp;nbsp; &amp;nbsp; &amp;nbsp; 1、用户权限管理模块&lt;div&gt;2、订单支付模块&lt;/div&gt;&lt;div&gt;3、商品管理模块&lt;/div&gt;&lt;div&gt;4、梦想交流模块&lt;/div&gt;&lt;div&gt;5、前台管理模块&lt;/div&gt;&lt;div&gt;&amp;nbsp; &amp;nbsp; &amp;nbsp; &amp;nbsp; &amp;nbsp; &amp;nbsp; &amp;nbsp; 6、文件上传下载管理模块&lt;/div&gt;&lt;div&gt;&amp;nbsp;7、axios请求封装&lt;/div&gt;&lt;div&gt;&amp;nbsp; &amp;nbsp;8、供应商模块管理&lt;/div&gt;" style="rounded=1;whiteSpace=wrap;html=1;" vertex="1" parent="WIyWlLk6GJQsqaUBKTNV-1">
          <mxGeometry x="475" y="375" width="205" height="135" as="geometry" />
        </mxCell>
        <mxCell id="3r6zsvW5G55fgNv5qknv-10" value="实现功能" style="text;html=1;align=center;verticalAlign=middle;whiteSpace=wrap;rounded=0;" vertex="1" parent="WIyWlLk6GJQsqaUBKTNV-1">
          <mxGeometry x="520" y="330" width="60" height="30" as="geometry" />
        </mxCell>
        <mxCell id="3r6zsvW5G55fgNv5qknv-11" value="1、用户新增&lt;div&gt;2、用户删除&lt;/div&gt;&lt;div&gt;3、用户修改&lt;/div&gt;&lt;div&gt;&amp;nbsp; &amp;nbsp; &amp;nbsp; &amp;nbsp;4、用户启用禁用&lt;/div&gt;&lt;div&gt;&amp;nbsp; &amp;nbsp; 5、用户上下线&lt;/div&gt;&lt;div&gt;6、权限新增&lt;/div&gt;&lt;div&gt;7、权限编辑&lt;/div&gt;&lt;div&gt;8、权限删除&lt;/div&gt;&lt;div&gt;9、菜单新增&lt;/div&gt;&lt;div&gt;10、菜单编辑&lt;/div&gt;&lt;div&gt;11、菜单删除&lt;/div&gt;&lt;div&gt;&amp;nbsp; &amp;nbsp; &amp;nbsp; &amp;nbsp; 12、用户权限绑定&lt;/div&gt;&lt;div&gt;&amp;nbsp; &amp;nbsp; &amp;nbsp; &amp;nbsp; 13、权限菜单绑定&lt;/div&gt;" style="rounded=0;whiteSpace=wrap;html=1;" vertex="1" parent="WIyWlLk6GJQsqaUBKTNV-1">
          <mxGeometry x="50" y="520" width="190" height="250" as="geometry" />
        </mxCell>
        <mxCell id="3r6zsvW5G55fgNv5qknv-13" value="基于RBAC模型的用户权限模块设计" style="text;html=1;align=center;verticalAlign=middle;whiteSpace=wrap;rounded=0;" vertex="1" parent="WIyWlLk6GJQsqaUBKTNV-1">
          <mxGeometry x="115" y="470" width="60" height="30" as="geometry" />
        </mxCell>
        <mxCell id="3r6zsvW5G55fgNv5qknv-16" value="流程" style="text;html=1;align=center;verticalAlign=middle;whiteSpace=wrap;rounded=0;" vertex="1" parent="WIyWlLk6GJQsqaUBKTNV-1">
          <mxGeometry x="340" y="640" width="60" height="30" as="geometry" />
        </mxCell>
        <mxCell id="3r6zsvW5G55fgNv5qknv-20" value="" style="edgeStyle=orthogonalEdgeStyle;rounded=0;orthogonalLoop=1;jettySize=auto;html=1;" edge="1" parent="WIyWlLk6GJQsqaUBKTNV-1" source="3r6zsvW5G55fgNv5qknv-17" target="3r6zsvW5G55fgNv5qknv-18">
          <mxGeometry relative="1" as="geometry" />
        </mxCell>
        <mxCell id="3r6zsvW5G55fgNv5qknv-17" value="Actor" style="shape=umlActor;verticalLabelPosition=bottom;verticalAlign=top;html=1;outlineConnect=0;" vertex="1" parent="WIyWlLk6GJQsqaUBKTNV-1">
          <mxGeometry x="430" y="615" width="30" height="60" as="geometry" />
        </mxCell>
        <mxCell id="3r6zsvW5G55fgNv5qknv-22" value="" style="edgeStyle=orthogonalEdgeStyle;rounded=0;orthogonalLoop=1;jettySize=auto;html=1;" edge="1" parent="WIyWlLk6GJQsqaUBKTNV-1" source="3r6zsvW5G55fgNv5qknv-18" target="3r6zsvW5G55fgNv5qknv-21">
          <mxGeometry relative="1" as="geometry" />
        </mxCell>
        <mxCell id="3r6zsvW5G55fgNv5qknv-18" value="登录" style="triangle;whiteSpace=wrap;html=1;" vertex="1" parent="WIyWlLk6GJQsqaUBKTNV-1">
          <mxGeometry x="550" y="605" width="60" height="80" as="geometry" />
        </mxCell>
        <mxCell id="3r6zsvW5G55fgNv5qknv-24" style="edgeStyle=orthogonalEdgeStyle;rounded=0;orthogonalLoop=1;jettySize=auto;html=1;entryX=0.5;entryY=0;entryDx=0;entryDy=0;" edge="1" parent="WIyWlLk6GJQsqaUBKTNV-1" source="3r6zsvW5G55fgNv5qknv-21" target="3r6zsvW5G55fgNv5qknv-23">
          <mxGeometry relative="1" as="geometry" />
        </mxCell>
        <mxCell id="3r6zsvW5G55fgNv5qknv-21" value="用户新增/编辑/删除" style="rounded=0;whiteSpace=wrap;html=1;" vertex="1" parent="WIyWlLk6GJQsqaUBKTNV-1">
          <mxGeometry x="676" y="615" width="120" height="60" as="geometry" />
        </mxCell>
        <mxCell id="3r6zsvW5G55fgNv5qknv-26" style="edgeStyle=orthogonalEdgeStyle;rounded=0;orthogonalLoop=1;jettySize=auto;html=1;entryX=0.5;entryY=0;entryDx=0;entryDy=0;" edge="1" parent="WIyWlLk6GJQsqaUBKTNV-1" source="3r6zsvW5G55fgNv5qknv-23" target="3r6zsvW5G55fgNv5qknv-25">
          <mxGeometry relative="1" as="geometry" />
        </mxCell>
        <mxCell id="3r6zsvW5G55fgNv5qknv-23" value="权限新增/编辑/删除" style="rounded=0;whiteSpace=wrap;html=1;" vertex="1" parent="WIyWlLk6GJQsqaUBKTNV-1">
          <mxGeometry x="676" y="750" width="120" height="60" as="geometry" />
        </mxCell>
        <mxCell id="3r6zsvW5G55fgNv5qknv-28" style="edgeStyle=orthogonalEdgeStyle;rounded=0;orthogonalLoop=1;jettySize=auto;html=1;entryX=1;entryY=0.5;entryDx=0;entryDy=0;" edge="1" parent="WIyWlLk6GJQsqaUBKTNV-1" source="3r6zsvW5G55fgNv5qknv-25" target="3r6zsvW5G55fgNv5qknv-27">
          <mxGeometry relative="1" as="geometry" />
        </mxCell>
        <mxCell id="3r6zsvW5G55fgNv5qknv-25" value="用户权限绑定（一个用户可以绑定多个权限）" style="rounded=1;whiteSpace=wrap;html=1;" vertex="1" parent="WIyWlLk6GJQsqaUBKTNV-1">
          <mxGeometry x="676" y="880" width="120" height="60" as="geometry" />
        </mxCell>
        <mxCell id="3r6zsvW5G55fgNv5qknv-30" style="edgeStyle=orthogonalEdgeStyle;rounded=0;orthogonalLoop=1;jettySize=auto;html=1;entryX=1;entryY=0.5;entryDx=0;entryDy=0;" edge="1" parent="WIyWlLk6GJQsqaUBKTNV-1" source="3r6zsvW5G55fgNv5qknv-27" target="3r6zsvW5G55fgNv5qknv-29">
          <mxGeometry relative="1" as="geometry" />
        </mxCell>
        <mxCell id="3r6zsvW5G55fgNv5qknv-27" value="菜单新增/编辑/删除" style="rounded=1;whiteSpace=wrap;html=1;" vertex="1" parent="WIyWlLk6GJQsqaUBKTNV-1">
          <mxGeometry x="460" y="880" width="120" height="60" as="geometry" />
        </mxCell>
        <mxCell id="3r6zsvW5G55fgNv5qknv-29" value="菜单权限绑定（一个角色可以绑定多个菜单）" style="rounded=1;whiteSpace=wrap;html=1;" vertex="1" parent="WIyWlLk6GJQsqaUBKTNV-1">
          <mxGeometry x="260" y="880" width="120" height="60" as="geometry" />
        </mxCell>
        <mxCell id="3r6zsvW5G55fgNv5qknv-31" value="前端登录实现流程" style="text;html=1;align=center;verticalAlign=middle;whiteSpace=wrap;rounded=0;" vertex="1" parent="WIyWlLk6GJQsqaUBKTNV-1">
          <mxGeometry x="30" y="990" width="60" height="30" as="geometry" />
        </mxCell>
        <mxCell id="3r6zsvW5G55fgNv5qknv-36" value="" style="edgeStyle=orthogonalEdgeStyle;rounded=0;orthogonalLoop=1;jettySize=auto;html=1;" edge="1" parent="WIyWlLk6GJQsqaUBKTNV-1" source="3r6zsvW5G55fgNv5qknv-32" target="3r6zsvW5G55fgNv5qknv-35">
          <mxGeometry relative="1" as="geometry" />
        </mxCell>
        <mxCell id="3r6zsvW5G55fgNv5qknv-32" value="Actor" style="shape=umlActor;verticalLabelPosition=bottom;verticalAlign=top;html=1;outlineConnect=0;" vertex="1" parent="WIyWlLk6GJQsqaUBKTNV-1">
          <mxGeometry x="160" y="970" width="30" height="60" as="geometry" />
        </mxCell>
        <mxCell id="3r6zsvW5G55fgNv5qknv-38" value="" style="edgeStyle=orthogonalEdgeStyle;rounded=0;orthogonalLoop=1;jettySize=auto;html=1;" edge="1" parent="WIyWlLk6GJQsqaUBKTNV-1" source="3r6zsvW5G55fgNv5qknv-35" target="3r6zsvW5G55fgNv5qknv-37">
          <mxGeometry relative="1" as="geometry" />
        </mxCell>
        <mxCell id="3r6zsvW5G55fgNv5qknv-35" value="登录页面" style="rounded=1;whiteSpace=wrap;html=1;" vertex="1" parent="WIyWlLk6GJQsqaUBKTNV-1">
          <mxGeometry x="294" y="970" width="120" height="60" as="geometry" />
        </mxCell>
        <mxCell id="3r6zsvW5G55fgNv5qknv-40" value="" style="edgeStyle=orthogonalEdgeStyle;rounded=0;orthogonalLoop=1;jettySize=auto;html=1;" edge="1" parent="WIyWlLk6GJQsqaUBKTNV-1" source="3r6zsvW5G55fgNv5qknv-37" target="3r6zsvW5G55fgNv5qknv-39">
          <mxGeometry relative="1" as="geometry" />
        </mxCell>
        <mxCell id="3r6zsvW5G55fgNv5qknv-37" value="输入用户相关信息" style="rounded=1;whiteSpace=wrap;html=1;" vertex="1" parent="WIyWlLk6GJQsqaUBKTNV-1">
          <mxGeometry x="500" y="970" width="120" height="60" as="geometry" />
        </mxCell>
        <mxCell id="3r6zsvW5G55fgNv5qknv-42" value="" style="edgeStyle=orthogonalEdgeStyle;rounded=0;orthogonalLoop=1;jettySize=auto;html=1;" edge="1" parent="WIyWlLk6GJQsqaUBKTNV-1" source="3r6zsvW5G55fgNv5qknv-39" target="3r6zsvW5G55fgNv5qknv-41">
          <mxGeometry relative="1" as="geometry" />
        </mxCell>
        <mxCell id="3r6zsvW5G55fgNv5qknv-43" value="通过" style="edgeLabel;html=1;align=center;verticalAlign=middle;resizable=0;points=[];" vertex="1" connectable="0" parent="3r6zsvW5G55fgNv5qknv-42">
          <mxGeometry x="-0.04" y="-3" relative="1" as="geometry">
            <mxPoint as="offset" />
          </mxGeometry>
        </mxCell>
        <mxCell id="3r6zsvW5G55fgNv5qknv-44" style="edgeStyle=orthogonalEdgeStyle;rounded=0;orthogonalLoop=1;jettySize=auto;html=1;entryX=0.5;entryY=1;entryDx=0;entryDy=0;" edge="1" parent="WIyWlLk6GJQsqaUBKTNV-1" source="3r6zsvW5G55fgNv5qknv-39" target="3r6zsvW5G55fgNv5qknv-35">
          <mxGeometry relative="1" as="geometry">
            <mxPoint x="300" y="1080" as="targetPoint" />
            <Array as="points">
              <mxPoint x="730" y="1080" />
              <mxPoint x="354" y="1080" />
            </Array>
          </mxGeometry>
        </mxCell>
        <mxCell id="3r6zsvW5G55fgNv5qknv-45" value="失败" style="edgeLabel;html=1;align=center;verticalAlign=middle;resizable=0;points=[];" vertex="1" connectable="0" parent="3r6zsvW5G55fgNv5qknv-44">
          <mxGeometry x="0.0592" y="1" relative="1" as="geometry">
            <mxPoint as="offset" />
          </mxGeometry>
        </mxCell>
        <mxCell id="3r6zsvW5G55fgNv5qknv-39" value="信息校验" style="rhombus;whiteSpace=wrap;html=1;" vertex="1" parent="WIyWlLk6GJQsqaUBKTNV-1">
          <mxGeometry x="690" y="960" width="80" height="80" as="geometry" />
        </mxCell>
        <mxCell id="3r6zsvW5G55fgNv5qknv-49" style="edgeStyle=orthogonalEdgeStyle;rounded=0;orthogonalLoop=1;jettySize=auto;html=1;entryX=0.5;entryY=0;entryDx=0;entryDy=0;" edge="1" parent="WIyWlLk6GJQsqaUBKTNV-1" source="3r6zsvW5G55fgNv5qknv-41" target="3r6zsvW5G55fgNv5qknv-48">
          <mxGeometry relative="1" as="geometry" />
        </mxCell>
        <mxCell id="3r6zsvW5G55fgNv5qknv-41" value="获取用户所有菜单" style="rounded=1;whiteSpace=wrap;html=1;" vertex="1" parent="WIyWlLk6GJQsqaUBKTNV-1">
          <mxGeometry x="860" y="970" width="120" height="60" as="geometry" />
        </mxCell>
        <mxCell id="3r6zsvW5G55fgNv5qknv-46" value="根据菜单注册动态路由，默认跳转首页" style="rounded=0;whiteSpace=wrap;html=1;" vertex="1" parent="WIyWlLk6GJQsqaUBKTNV-1">
          <mxGeometry x="620" y="1109" width="120" height="60" as="geometry" />
        </mxCell>
        <mxCell id="3r6zsvW5G55fgNv5qknv-53" style="edgeStyle=orthogonalEdgeStyle;rounded=0;orthogonalLoop=1;jettySize=auto;html=1;entryX=1;entryY=0.5;entryDx=0;entryDy=0;" edge="1" parent="WIyWlLk6GJQsqaUBKTNV-1" source="3r6zsvW5G55fgNv5qknv-48" target="3r6zsvW5G55fgNv5qknv-46">
          <mxGeometry relative="1" as="geometry" />
        </mxCell>
        <mxCell id="3r6zsvW5G55fgNv5qknv-48" value="将菜单信息保存到localstorage中，并放入strore" style="rounded=1;whiteSpace=wrap;html=1;" vertex="1" parent="WIyWlLk6GJQsqaUBKTNV-1">
          <mxGeometry x="860" y="1109" width="120" height="60" as="geometry" />
        </mxCell>
        <mxCell id="3r6zsvW5G55fgNv5qknv-54" value="axios请求封装" style="text;html=1;align=center;verticalAlign=middle;whiteSpace=wrap;rounded=0;" vertex="1" parent="WIyWlLk6GJQsqaUBKTNV-1">
          <mxGeometry x="20" y="1265" width="60" height="30" as="geometry" />
        </mxCell>
        <mxCell id="3r6zsvW5G55fgNv5qknv-58" style="edgeStyle=orthogonalEdgeStyle;rounded=0;orthogonalLoop=1;jettySize=auto;html=1;" edge="1" parent="WIyWlLk6GJQsqaUBKTNV-1" source="3r6zsvW5G55fgNv5qknv-55" target="3r6zsvW5G55fgNv5qknv-56">
          <mxGeometry relative="1" as="geometry" />
        </mxCell>
        <mxCell id="3r6zsvW5G55fgNv5qknv-55" value="定义基础api" style="rounded=1;whiteSpace=wrap;html=1;" vertex="1" parent="WIyWlLk6GJQsqaUBKTNV-1">
          <mxGeometry x="180" y="1250" width="120" height="60" as="geometry" />
        </mxCell>
        <mxCell id="3r6zsvW5G55fgNv5qknv-59" style="edgeStyle=orthogonalEdgeStyle;rounded=0;orthogonalLoop=1;jettySize=auto;html=1;" edge="1" parent="WIyWlLk6GJQsqaUBKTNV-1" source="3r6zsvW5G55fgNv5qknv-56" target="3r6zsvW5G55fgNv5qknv-57">
          <mxGeometry relative="1" as="geometry" />
        </mxCell>
        <mxCell id="3r6zsvW5G55fgNv5qknv-56" value="实现自定义请求拦截：给每一个请求进行请求头设置token，如果是登录请求，则不需要在请求头设置token" style="rounded=1;whiteSpace=wrap;html=1;" vertex="1" parent="WIyWlLk6GJQsqaUBKTNV-1">
          <mxGeometry x="400" y="1240" width="130" height="80" as="geometry" />
        </mxCell>
        <mxCell id="3r6zsvW5G55fgNv5qknv-57" value="实现自定义响应拦截：拿到每一个请求响应解构，对请求响应编码进行处理，如200是成功状态，则不进行特殊处理，如响应编码为500，则提示用户系统错误信息" style="rounded=1;whiteSpace=wrap;html=1;" vertex="1" parent="WIyWlLk6GJQsqaUBKTNV-1">
          <mxGeometry x="616" y="1225" width="180" height="110" as="geometry" />
        </mxCell>
        <mxCell id="3r6zsvW5G55fgNv5qknv-60" value="供应商管理" style="text;html=1;align=center;verticalAlign=middle;whiteSpace=wrap;rounded=0;" vertex="1" parent="WIyWlLk6GJQsqaUBKTNV-1">
          <mxGeometry x="20" y="1430" width="60" height="30" as="geometry" />
        </mxCell>
        <mxCell id="3r6zsvW5G55fgNv5qknv-63" style="edgeStyle=orthogonalEdgeStyle;rounded=0;orthogonalLoop=1;jettySize=auto;html=1;entryX=0;entryY=0.5;entryDx=0;entryDy=0;" edge="1" parent="WIyWlLk6GJQsqaUBKTNV-1" source="3r6zsvW5G55fgNv5qknv-61" target="3r6zsvW5G55fgNv5qknv-62">
          <mxGeometry relative="1" as="geometry" />
        </mxCell>
        <mxCell id="3r6zsvW5G55fgNv5qknv-61" value="Actor" style="shape=umlActor;verticalLabelPosition=bottom;verticalAlign=top;html=1;outlineConnect=0;" vertex="1" parent="WIyWlLk6GJQsqaUBKTNV-1">
          <mxGeometry x="170" y="1415" width="30" height="60" as="geometry" />
        </mxCell>
        <mxCell id="3r6zsvW5G55fgNv5qknv-65" style="edgeStyle=orthogonalEdgeStyle;rounded=0;orthogonalLoop=1;jettySize=auto;html=1;entryX=0;entryY=0.5;entryDx=0;entryDy=0;" edge="1" parent="WIyWlLk6GJQsqaUBKTNV-1" source="3r6zsvW5G55fgNv5qknv-62" target="3r6zsvW5G55fgNv5qknv-64">
          <mxGeometry relative="1" as="geometry" />
        </mxCell>
        <mxCell id="3r6zsvW5G55fgNv5qknv-62" value="登录" style="rhombus;whiteSpace=wrap;html=1;" vertex="1" parent="WIyWlLk6GJQsqaUBKTNV-1">
          <mxGeometry x="294" y="1405" width="80" height="80" as="geometry" />
        </mxCell>
        <mxCell id="3r6zsvW5G55fgNv5qknv-70" style="edgeStyle=orthogonalEdgeStyle;rounded=0;orthogonalLoop=1;jettySize=auto;html=1;entryX=0;entryY=0.5;entryDx=0;entryDy=0;" edge="1" parent="WIyWlLk6GJQsqaUBKTNV-1" source="3r6zsvW5G55fgNv5qknv-64" target="3r6zsvW5G55fgNv5qknv-69">
          <mxGeometry relative="1" as="geometry" />
        </mxCell>
        <mxCell id="3r6zsvW5G55fgNv5qknv-64" value="供应商入住（由后台管理人员进行供应商的数据录入）" style="rounded=1;whiteSpace=wrap;html=1;" vertex="1" parent="WIyWlLk6GJQsqaUBKTNV-1">
          <mxGeometry x="510" y="1415" width="120" height="60" as="geometry" />
        </mxCell>
        <mxCell id="3r6zsvW5G55fgNv5qknv-73" style="edgeStyle=orthogonalEdgeStyle;rounded=0;orthogonalLoop=1;jettySize=auto;html=1;" edge="1" parent="WIyWlLk6GJQsqaUBKTNV-1" source="3r6zsvW5G55fgNv5qknv-69" target="3r6zsvW5G55fgNv5qknv-72">
          <mxGeometry relative="1" as="geometry" />
        </mxCell>
        <mxCell id="3r6zsvW5G55fgNv5qknv-69" value="自动新增对于供应商用户（自动分配供应商商品管理角色及相应菜单）" style="rounded=1;whiteSpace=wrap;html=1;" vertex="1" parent="WIyWlLk6GJQsqaUBKTNV-1">
          <mxGeometry x="700" y="1415" width="190" height="60" as="geometry" />
        </mxCell>
        <mxCell id="3r6zsvW5G55fgNv5qknv-72" value="供应商在供应商商品管理菜单页面下对供应商商品进行新增，编辑，删除，提价，对供应商订单数据进行管理" style="rounded=1;whiteSpace=wrap;html=1;" vertex="1" parent="WIyWlLk6GJQsqaUBKTNV-1">
          <mxGeometry x="1010" y="1415" width="210" height="60" as="geometry" />
        </mxCell>
        <mxCell id="3r6zsvW5G55fgNv5qknv-74" value="商品模块" style="text;html=1;align=center;verticalAlign=middle;whiteSpace=wrap;rounded=0;" vertex="1" parent="WIyWlLk6GJQsqaUBKTNV-1">
          <mxGeometry x="10" y="1620" width="60" height="30" as="geometry" />
        </mxCell>
        <mxCell id="3r6zsvW5G55fgNv5qknv-75" value="Actor" style="shape=umlActor;verticalLabelPosition=bottom;verticalAlign=top;html=1;outlineConnect=0;" vertex="1" parent="WIyWlLk6GJQsqaUBKTNV-1">
          <mxGeometry x="175" y="1605" width="30" height="60" as="geometry" />
        </mxCell>
        <mxCell id="3r6zsvW5G55fgNv5qknv-79" style="edgeStyle=orthogonalEdgeStyle;rounded=0;orthogonalLoop=1;jettySize=auto;html=1;entryX=0;entryY=0.5;entryDx=0;entryDy=0;" edge="1" parent="WIyWlLk6GJQsqaUBKTNV-1" source="3r6zsvW5G55fgNv5qknv-76" target="3r6zsvW5G55fgNv5qknv-78">
          <mxGeometry relative="1" as="geometry" />
        </mxCell>
        <mxCell id="3r6zsvW5G55fgNv5qknv-76" value="登录" style="rhombus;whiteSpace=wrap;html=1;" vertex="1" parent="WIyWlLk6GJQsqaUBKTNV-1">
          <mxGeometry x="290" y="1595" width="80" height="80" as="geometry" />
        </mxCell>
        <mxCell id="3r6zsvW5G55fgNv5qknv-81" style="edgeStyle=orthogonalEdgeStyle;rounded=0;orthogonalLoop=1;jettySize=auto;html=1;entryX=0;entryY=0.5;entryDx=0;entryDy=0;" edge="1" parent="WIyWlLk6GJQsqaUBKTNV-1" source="3r6zsvW5G55fgNv5qknv-78" target="3r6zsvW5G55fgNv5qknv-80">
          <mxGeometry relative="1" as="geometry" />
        </mxCell>
        <mxCell id="3r6zsvW5G55fgNv5qknv-78" value="新增商品" style="rhombus;whiteSpace=wrap;html=1;" vertex="1" parent="WIyWlLk6GJQsqaUBKTNV-1">
          <mxGeometry x="460" y="1595" width="80" height="80" as="geometry" />
        </mxCell>
        <mxCell id="3r6zsvW5G55fgNv5qknv-83" style="edgeStyle=orthogonalEdgeStyle;rounded=0;orthogonalLoop=1;jettySize=auto;html=1;entryX=0;entryY=0.5;entryDx=0;entryDy=0;" edge="1" parent="WIyWlLk6GJQsqaUBKTNV-1" source="3r6zsvW5G55fgNv5qknv-80" target="3r6zsvW5G55fgNv5qknv-82">
          <mxGeometry relative="1" as="geometry" />
        </mxCell>
        <mxCell id="3r6zsvW5G55fgNv5qknv-85" style="edgeStyle=orthogonalEdgeStyle;rounded=0;orthogonalLoop=1;jettySize=auto;html=1;" edge="1" parent="WIyWlLk6GJQsqaUBKTNV-1" source="3r6zsvW5G55fgNv5qknv-80" target="3r6zsvW5G55fgNv5qknv-84">
          <mxGeometry relative="1" as="geometry" />
        </mxCell>
        <mxCell id="3r6zsvW5G55fgNv5qknv-80" value="选择供应商上传供应商商品" style="rounded=1;whiteSpace=wrap;html=1;" vertex="1" parent="WIyWlLk6GJQsqaUBKTNV-1">
          <mxGeometry x="610" y="1605" width="120" height="60" as="geometry" />
        </mxCell>
        <mxCell id="3r6zsvW5G55fgNv5qknv-87" style="edgeStyle=orthogonalEdgeStyle;rounded=0;orthogonalLoop=1;jettySize=auto;html=1;" edge="1" parent="WIyWlLk6GJQsqaUBKTNV-1" source="3r6zsvW5G55fgNv5qknv-82" target="3r6zsvW5G55fgNv5qknv-86">
          <mxGeometry relative="1" as="geometry" />
        </mxCell>
        <mxCell id="3r6zsvW5G55fgNv5qknv-82" value="填写商品基本信息（商品介绍，商品图片展示，商品价格，结算价等）" style="rounded=0;whiteSpace=wrap;html=1;" vertex="1" parent="WIyWlLk6GJQsqaUBKTNV-1">
          <mxGeometry x="827" y="1605" width="120" height="60" as="geometry" />
        </mxCell>
        <mxCell id="3r6zsvW5G55fgNv5qknv-84" value="供应商新增的供应商商品" style="rounded=1;whiteSpace=wrap;html=1;" vertex="1" parent="WIyWlLk6GJQsqaUBKTNV-1">
          <mxGeometry x="610" y="1780" width="120" height="60" as="geometry" />
        </mxCell>
        <mxCell id="3r6zsvW5G55fgNv5qknv-92" value="" style="edgeStyle=orthogonalEdgeStyle;rounded=0;orthogonalLoop=1;jettySize=auto;html=1;" edge="1" parent="WIyWlLk6GJQsqaUBKTNV-1" source="3r6zsvW5G55fgNv5qknv-86" target="3r6zsvW5G55fgNv5qknv-88">
          <mxGeometry relative="1" as="geometry" />
        </mxCell>
        <mxCell id="3r6zsvW5G55fgNv5qknv-86" value="编辑删除" style="rounded=1;whiteSpace=wrap;html=1;" vertex="1" parent="WIyWlLk6GJQsqaUBKTNV-1">
          <mxGeometry x="1040" y="1605" width="120" height="60" as="geometry" />
        </mxCell>
        <mxCell id="3r6zsvW5G55fgNv5qknv-91" value="" style="edgeStyle=orthogonalEdgeStyle;rounded=0;orthogonalLoop=1;jettySize=auto;html=1;" edge="1" parent="WIyWlLk6GJQsqaUBKTNV-1" source="3r6zsvW5G55fgNv5qknv-88" target="3r6zsvW5G55fgNv5qknv-89">
          <mxGeometry relative="1" as="geometry" />
        </mxCell>
        <mxCell id="3r6zsvW5G55fgNv5qknv-88" value="商品上架" style="rounded=1;whiteSpace=wrap;html=1;" vertex="1" parent="WIyWlLk6GJQsqaUBKTNV-1">
          <mxGeometry x="1241" y="1605" width="120" height="60" as="geometry" />
        </mxCell>
        <mxCell id="3r6zsvW5G55fgNv5qknv-89" value="用户购买" style="rounded=1;whiteSpace=wrap;html=1;" vertex="1" parent="WIyWlLk6GJQsqaUBKTNV-1">
          <mxGeometry x="1241" y="1770" width="120" height="60" as="geometry" />
        </mxCell>
        <mxCell id="3r6zsvW5G55fgNv5qknv-93" value="梦想交流 模块" style="text;html=1;align=center;verticalAlign=middle;whiteSpace=wrap;rounded=0;" vertex="1" parent="WIyWlLk6GJQsqaUBKTNV-1">
          <mxGeometry x="10" y="1890" width="60" height="30" as="geometry" />
        </mxCell>
        <mxCell id="3r6zsvW5G55fgNv5qknv-96" style="edgeStyle=orthogonalEdgeStyle;rounded=0;orthogonalLoop=1;jettySize=auto;html=1;" edge="1" parent="WIyWlLk6GJQsqaUBKTNV-1" source="3r6zsvW5G55fgNv5qknv-94">
          <mxGeometry relative="1" as="geometry">
            <mxPoint x="300" y="1905" as="targetPoint" />
          </mxGeometry>
        </mxCell>
        <mxCell id="3r6zsvW5G55fgNv5qknv-94" value="Actor" style="shape=umlActor;verticalLabelPosition=bottom;verticalAlign=top;html=1;outlineConnect=0;" vertex="1" parent="WIyWlLk6GJQsqaUBKTNV-1">
          <mxGeometry x="175" y="1875" width="30" height="60" as="geometry" />
        </mxCell>
        <mxCell id="3r6zsvW5G55fgNv5qknv-99" style="edgeStyle=orthogonalEdgeStyle;rounded=0;orthogonalLoop=1;jettySize=auto;html=1;" edge="1" parent="WIyWlLk6GJQsqaUBKTNV-1" source="3r6zsvW5G55fgNv5qknv-95" target="3r6zsvW5G55fgNv5qknv-97">
          <mxGeometry relative="1" as="geometry" />
        </mxCell>
        <mxCell id="3r6zsvW5G55fgNv5qknv-95" value="精灵奇幻梦旅登录" style="rhombus;whiteSpace=wrap;html=1;" vertex="1" parent="WIyWlLk6GJQsqaUBKTNV-1">
          <mxGeometry x="301" y="1852.5" width="106" height="105" as="geometry" />
        </mxCell>
        <mxCell id="3r6zsvW5G55fgNv5qknv-97" value="用户发布梦旅" style="rounded=1;whiteSpace=wrap;html=1;" vertex="1" parent="WIyWlLk6GJQsqaUBKTNV-1">
          <mxGeometry x="530" y="1875" width="120" height="60" as="geometry" />
        </mxCell>
        <mxCell id="3r6zsvW5G55fgNv5qknv-98" value="用户点击梦旅菜单，可以看到各个用户发布的梦旅信息" style="rounded=1;whiteSpace=wrap;html=1;" vertex="1" parent="WIyWlLk6GJQsqaUBKTNV-1">
          <mxGeometry x="530" y="1980" width="120" height="60" as="geometry" />
        </mxCell>
        <mxCell id="3r6zsvW5G55fgNv5qknv-102" value="" style="endArrow=classic;html=1;rounded=0;exitX=1;exitY=0.5;exitDx=0;exitDy=0;entryX=0;entryY=0.5;entryDx=0;entryDy=0;" edge="1" parent="WIyWlLk6GJQsqaUBKTNV-1" source="3r6zsvW5G55fgNv5qknv-95" target="3r6zsvW5G55fgNv5qknv-98">
          <mxGeometry width="50" height="50" relative="1" as="geometry">
            <mxPoint x="470" y="2070" as="sourcePoint" />
            <mxPoint x="520" y="2020" as="targetPoint" />
          </mxGeometry>
        </mxCell>
        <mxCell id="3r6zsvW5G55fgNv5qknv-107" style="edgeStyle=orthogonalEdgeStyle;rounded=0;orthogonalLoop=1;jettySize=auto;html=1;entryX=0;entryY=0.5;entryDx=0;entryDy=0;" edge="1" parent="WIyWlLk6GJQsqaUBKTNV-1" source="3r6zsvW5G55fgNv5qknv-103" target="3r6zsvW5G55fgNv5qknv-106">
          <mxGeometry relative="1" as="geometry" />
        </mxCell>
        <mxCell id="3r6zsvW5G55fgNv5qknv-103" value="参与梦旅评论" style="rounded=1;whiteSpace=wrap;html=1;" vertex="1" parent="WIyWlLk6GJQsqaUBKTNV-1">
          <mxGeometry x="880" y="1930" width="120" height="60" as="geometry" />
        </mxCell>
        <mxCell id="3r6zsvW5G55fgNv5qknv-105" style="edgeStyle=orthogonalEdgeStyle;rounded=0;orthogonalLoop=1;jettySize=auto;html=1;" edge="1" parent="WIyWlLk6GJQsqaUBKTNV-1" source="3r6zsvW5G55fgNv5qknv-104" target="3r6zsvW5G55fgNv5qknv-103">
          <mxGeometry relative="1" as="geometry" />
        </mxCell>
        <mxCell id="3r6zsvW5G55fgNv5qknv-104" value="目前只支持图片和文字，评论只支持二级" style="ellipse;whiteSpace=wrap;html=1;" vertex="1" parent="WIyWlLk6GJQsqaUBKTNV-1">
          <mxGeometry x="640" y="1920" width="120" height="80" as="geometry" />
        </mxCell>
        <mxCell id="3r6zsvW5G55fgNv5qknv-106" value="推送：如果有用户评论，将相关信息推送给作者和评论人员" style="rounded=1;whiteSpace=wrap;html=1;" vertex="1" parent="WIyWlLk6GJQsqaUBKTNV-1">
          <mxGeometry x="1090" y="1930" width="120" height="60" as="geometry" />
        </mxCell>
        <mxCell id="3r6zsvW5G55fgNv5qknv-108" value="前台管理模块" style="text;html=1;align=center;verticalAlign=middle;whiteSpace=wrap;rounded=0;" vertex="1" parent="WIyWlLk6GJQsqaUBKTNV-1">
          <mxGeometry x="20" y="2130" width="60" height="30" as="geometry" />
        </mxCell>
        <mxCell id="3r6zsvW5G55fgNv5qknv-118" style="edgeStyle=orthogonalEdgeStyle;rounded=0;orthogonalLoop=1;jettySize=auto;html=1;" edge="1" parent="WIyWlLk6GJQsqaUBKTNV-1" source="3r6zsvW5G55fgNv5qknv-109" target="3r6zsvW5G55fgNv5qknv-110">
          <mxGeometry relative="1" as="geometry" />
        </mxCell>
        <mxCell id="3r6zsvW5G55fgNv5qknv-109" value="Actor" style="shape=umlActor;verticalLabelPosition=bottom;verticalAlign=top;html=1;outlineConnect=0;" vertex="1" parent="WIyWlLk6GJQsqaUBKTNV-1">
          <mxGeometry x="170" y="2100" width="30" height="60" as="geometry" />
        </mxCell>
        <mxCell id="3r6zsvW5G55fgNv5qknv-110" value="登录" style="rhombus;whiteSpace=wrap;html=1;" vertex="1" parent="WIyWlLk6GJQsqaUBKTNV-1">
          <mxGeometry x="301" y="2090" width="80" height="80" as="geometry" />
        </mxCell>
        <mxCell id="3r6zsvW5G55fgNv5qknv-117" value="" style="ellipse;whiteSpace=wrap;html=1;" vertex="1" parent="WIyWlLk6GJQsqaUBKTNV-1">
          <mxGeometry x="60" y="2240" width="580" height="320" as="geometry" />
        </mxCell>
        <mxCell id="3r6zsvW5G55fgNv5qknv-116" value="个人订单展示" style="rounded=1;whiteSpace=wrap;html=1;" vertex="1" parent="WIyWlLk6GJQsqaUBKTNV-1">
          <mxGeometry x="200" y="2280" width="120" height="60" as="geometry" />
        </mxCell>
        <mxCell id="3r6zsvW5G55fgNv5qknv-114" value="商品展示" style="rounded=1;whiteSpace=wrap;html=1;" vertex="1" parent="WIyWlLk6GJQsqaUBKTNV-1">
          <mxGeometry x="374" y="2280" width="120" height="60" as="geometry" />
        </mxCell>
        <mxCell id="3r6zsvW5G55fgNv5qknv-111" value="设置首页轮播图" style="rounded=1;whiteSpace=wrap;html=1;" vertex="1" parent="WIyWlLk6GJQsqaUBKTNV-1">
          <mxGeometry x="200" y="2370" width="120" height="60" as="geometry" />
        </mxCell>
        <mxCell id="3r6zsvW5G55fgNv5qknv-112" value="设置首页背景" style="rounded=1;whiteSpace=wrap;html=1;" vertex="1" parent="WIyWlLk6GJQsqaUBKTNV-1">
          <mxGeometry x="381" y="2370" width="120" height="60" as="geometry" />
        </mxCell>
        <mxCell id="3r6zsvW5G55fgNv5qknv-115" value="梦里展示" style="rounded=1;whiteSpace=wrap;html=1;" vertex="1" parent="WIyWlLk6GJQsqaUBKTNV-1">
          <mxGeometry x="287" y="2480" width="120" height="60" as="geometry" />
        </mxCell>
        <mxCell id="3r6zsvW5G55fgNv5qknv-119" style="edgeStyle=orthogonalEdgeStyle;rounded=0;orthogonalLoop=1;jettySize=auto;html=1;entryX=0.485;entryY=-0.003;entryDx=0;entryDy=0;entryPerimeter=0;" edge="1" parent="WIyWlLk6GJQsqaUBKTNV-1" source="3r6zsvW5G55fgNv5qknv-110" target="3r6zsvW5G55fgNv5qknv-117">
          <mxGeometry relative="1" as="geometry" />
        </mxCell>
        <mxCell id="3r6zsvW5G55fgNv5qknv-120" value="订单支付模块" style="text;html=1;align=center;verticalAlign=middle;whiteSpace=wrap;rounded=0;" vertex="1" parent="WIyWlLk6GJQsqaUBKTNV-1">
          <mxGeometry x="10" y="2670" width="60" height="30" as="geometry" />
        </mxCell>
        <mxCell id="3r6zsvW5G55fgNv5qknv-128" style="edgeStyle=orthogonalEdgeStyle;rounded=0;orthogonalLoop=1;jettySize=auto;html=1;entryX=0;entryY=0.5;entryDx=0;entryDy=0;" edge="1" parent="WIyWlLk6GJQsqaUBKTNV-1" source="3r6zsvW5G55fgNv5qknv-121" target="3r6zsvW5G55fgNv5qknv-122">
          <mxGeometry relative="1" as="geometry" />
        </mxCell>
        <mxCell id="3r6zsvW5G55fgNv5qknv-121" value="Actor" style="shape=umlActor;verticalLabelPosition=bottom;verticalAlign=top;html=1;outlineConnect=0;" vertex="1" parent="WIyWlLk6GJQsqaUBKTNV-1">
          <mxGeometry x="195" y="2655" width="30" height="60" as="geometry" />
        </mxCell>
        <mxCell id="3r6zsvW5G55fgNv5qknv-129" style="edgeStyle=orthogonalEdgeStyle;rounded=0;orthogonalLoop=1;jettySize=auto;html=1;" edge="1" parent="WIyWlLk6GJQsqaUBKTNV-1" source="3r6zsvW5G55fgNv5qknv-122" target="3r6zsvW5G55fgNv5qknv-126">
          <mxGeometry relative="1" as="geometry" />
        </mxCell>
        <mxCell id="3r6zsvW5G55fgNv5qknv-122" value="点击商品支付" style="rounded=1;whiteSpace=wrap;html=1;" vertex="1" parent="WIyWlLk6GJQsqaUBKTNV-1">
          <mxGeometry x="360" y="2655" width="120" height="60" as="geometry" />
        </mxCell>
        <mxCell id="3r6zsvW5G55fgNv5qknv-130" style="edgeStyle=orthogonalEdgeStyle;rounded=0;orthogonalLoop=1;jettySize=auto;html=1;" edge="1" parent="WIyWlLk6GJQsqaUBKTNV-1" source="3r6zsvW5G55fgNv5qknv-126" target="3r6zsvW5G55fgNv5qknv-127">
          <mxGeometry relative="1" as="geometry" />
        </mxCell>
        <mxCell id="3r6zsvW5G55fgNv5qknv-126" value="展示支付二维码" style="rounded=1;whiteSpace=wrap;html=1;" vertex="1" parent="WIyWlLk6GJQsqaUBKTNV-1">
          <mxGeometry x="560" y="2655" width="120" height="60" as="geometry" />
        </mxCell>
        <mxCell id="3r6zsvW5G55fgNv5qknv-132" style="edgeStyle=orthogonalEdgeStyle;rounded=0;orthogonalLoop=1;jettySize=auto;html=1;entryX=0.5;entryY=0;entryDx=0;entryDy=0;" edge="1" parent="WIyWlLk6GJQsqaUBKTNV-1" source="3r6zsvW5G55fgNv5qknv-127" target="3r6zsvW5G55fgNv5qknv-131">
          <mxGeometry relative="1" as="geometry" />
        </mxCell>
        <mxCell id="3r6zsvW5G55fgNv5qknv-127" value="用户扫码支付" style="rounded=1;whiteSpace=wrap;html=1;" vertex="1" parent="WIyWlLk6GJQsqaUBKTNV-1">
          <mxGeometry x="760" y="2655" width="120" height="60" as="geometry" />
        </mxCell>
        <mxCell id="3r6zsvW5G55fgNv5qknv-134" style="edgeStyle=orthogonalEdgeStyle;rounded=0;orthogonalLoop=1;jettySize=auto;html=1;" edge="1" parent="WIyWlLk6GJQsqaUBKTNV-1" source="3r6zsvW5G55fgNv5qknv-131" target="3r6zsvW5G55fgNv5qknv-133">
          <mxGeometry relative="1" as="geometry" />
        </mxCell>
        <mxCell id="3r6zsvW5G55fgNv5qknv-131" value="生成订单" style="rounded=1;whiteSpace=wrap;html=1;" vertex="1" parent="WIyWlLk6GJQsqaUBKTNV-1">
          <mxGeometry x="760" y="2810" width="120" height="60" as="geometry" />
        </mxCell>
        <mxCell id="3r6zsvW5G55fgNv5qknv-133" value="数据管理" style="rounded=1;whiteSpace=wrap;html=1;" vertex="1" parent="WIyWlLk6GJQsqaUBKTNV-1">
          <mxGeometry x="560" y="2810" width="120" height="60" as="geometry" />
        </mxCell>
        <mxCell id="3r6zsvW5G55fgNv5qknv-135" value="文件上传下载" style="text;html=1;align=center;verticalAlign=middle;whiteSpace=wrap;rounded=0;" vertex="1" parent="WIyWlLk6GJQsqaUBKTNV-1">
          <mxGeometry x="20" y="2940" width="60" height="30" as="geometry" />
        </mxCell>
        <mxCell id="3r6zsvW5G55fgNv5qknv-143" style="edgeStyle=orthogonalEdgeStyle;rounded=0;orthogonalLoop=1;jettySize=auto;html=1;entryX=0;entryY=0.5;entryDx=0;entryDy=0;" edge="1" parent="WIyWlLk6GJQsqaUBKTNV-1" source="3r6zsvW5G55fgNv5qknv-136" target="3r6zsvW5G55fgNv5qknv-137">
          <mxGeometry relative="1" as="geometry" />
        </mxCell>
        <mxCell id="3r6zsvW5G55fgNv5qknv-136" value="Actor" style="shape=umlActor;verticalLabelPosition=bottom;verticalAlign=top;html=1;outlineConnect=0;" vertex="1" parent="WIyWlLk6GJQsqaUBKTNV-1">
          <mxGeometry x="180" y="2923" width="30" height="60" as="geometry" />
        </mxCell>
        <mxCell id="3r6zsvW5G55fgNv5qknv-144" style="edgeStyle=orthogonalEdgeStyle;rounded=0;orthogonalLoop=1;jettySize=auto;html=1;" edge="1" parent="WIyWlLk6GJQsqaUBKTNV-1" source="3r6zsvW5G55fgNv5qknv-137">
          <mxGeometry relative="1" as="geometry">
            <mxPoint x="480" y="2953" as="targetPoint" />
          </mxGeometry>
        </mxCell>
        <mxCell id="3r6zsvW5G55fgNv5qknv-137" value="登录" style="rhombus;whiteSpace=wrap;html=1;" vertex="1" parent="WIyWlLk6GJQsqaUBKTNV-1">
          <mxGeometry x="294" y="2913" width="80" height="80" as="geometry" />
        </mxCell>
        <mxCell id="3r6zsvW5G55fgNv5qknv-141" style="edgeStyle=orthogonalEdgeStyle;rounded=0;orthogonalLoop=1;jettySize=auto;html=1;entryX=0;entryY=0.5;entryDx=0;entryDy=0;" edge="1" parent="WIyWlLk6GJQsqaUBKTNV-1" source="3r6zsvW5G55fgNv5qknv-138" target="3r6zsvW5G55fgNv5qknv-139">
          <mxGeometry relative="1" as="geometry" />
        </mxCell>
        <mxCell id="3r6zsvW5G55fgNv5qknv-138" value="文件上传" style="rounded=1;whiteSpace=wrap;html=1;" vertex="1" parent="WIyWlLk6GJQsqaUBKTNV-1">
          <mxGeometry x="480" y="2925" width="120" height="60" as="geometry" />
        </mxCell>
        <mxCell id="3r6zsvW5G55fgNv5qknv-142" style="edgeStyle=orthogonalEdgeStyle;rounded=0;orthogonalLoop=1;jettySize=auto;html=1;entryX=1;entryY=0.5;entryDx=0;entryDy=0;" edge="1" parent="WIyWlLk6GJQsqaUBKTNV-1" source="3r6zsvW5G55fgNv5qknv-139" target="3r6zsvW5G55fgNv5qknv-140">
          <mxGeometry relative="1" as="geometry" />
        </mxCell>
        <mxCell id="3r6zsvW5G55fgNv5qknv-139" value="服务器" style="rounded=1;whiteSpace=wrap;html=1;" vertex="1" parent="WIyWlLk6GJQsqaUBKTNV-1">
          <mxGeometry x="780" y="2985" width="120" height="60" as="geometry" />
        </mxCell>
        <mxCell id="3r6zsvW5G55fgNv5qknv-145" style="edgeStyle=orthogonalEdgeStyle;rounded=0;orthogonalLoop=1;jettySize=auto;html=1;" edge="1" parent="WIyWlLk6GJQsqaUBKTNV-1" source="3r6zsvW5G55fgNv5qknv-140" target="3r6zsvW5G55fgNv5qknv-136">
          <mxGeometry relative="1" as="geometry" />
        </mxCell>
        <mxCell id="3r6zsvW5G55fgNv5qknv-140" value="文件下载" style="rounded=1;whiteSpace=wrap;html=1;" vertex="1" parent="WIyWlLk6GJQsqaUBKTNV-1">
          <mxGeometry x="480" y="3045" width="120" height="60" as="geometry" />
        </mxCell>
      </root>
    </mxGraphModel>
  </diagram>
</mxfile>
